<svg width="577" height="494" viewBox="0 0 577 494" fill="none" xmlns="http://www.w3.org/2000/svg">
<g clip-path="url(#clip0_1_2)">
<path d="M407.077 488.35C397.823 480.53 392.201 468.177 393.676 456.151C395.15 444.125 404.281 433.069 416.124 430.515C427.968 427.962 441.47 435.031 445.067 446.601C447.047 424.295 449.328 401.054 461.187 382.058C471.926 364.858 490.525 352.551 510.682 350.349C530.839 348.147 552.062 356.463 564.633 372.373C577.204 388.283 580.282 411.412 571.478 429.678C564.992 443.133 553.042 453.147 540.522 461.294C500.065 487.398 451.542 498.013 403.881 491.187" fill="#F2F2F2"/>
<path d="M544.7 356.924C528.068 370.471 512.81 385.623 499.146 402.159C477.763 427.95 460.459 456.866 447.838 487.9C446.914 490.164 450.59 491.15 451.504 488.911C459.53 469.29 469.46 450.502 481.151 432.818C499.382 405.192 521.718 380.507 547.388 359.613C549.286 358.067 546.582 355.391 544.7 356.924Z" fill="white"/>
<path d="M400.685 488.35C409.94 480.53 415.561 468.177 414.087 456.151C412.613 444.125 403.482 433.069 391.638 430.515C379.794 427.962 366.293 435.031 362.695 446.601C360.716 424.295 358.434 401.054 346.575 382.058C335.837 364.858 317.238 352.551 297.081 350.349C276.923 348.147 255.701 356.463 243.129 372.373C230.558 388.283 227.48 411.412 236.285 429.678C242.771 443.133 254.72 453.147 267.24 461.294C307.697 487.398 356.22 498.013 403.881 491.187" fill="#F2F2F2"/>
<path d="M263.062 356.924C279.695 370.471 294.953 385.623 308.616 402.159C330 427.95 347.303 456.866 359.925 487.9C360.848 490.164 357.172 491.15 356.258 488.911C335.608 438.474 302.642 394.019 260.374 359.613C258.476 358.067 261.18 355.391 263.062 356.924Z" fill="white"/>
<path d="M373.222 222C356.102 222 342.222 208.121 342.222 191C342.222 173.879 356.102 160 373.222 160C390.343 160 404.222 173.879 404.222 191C404.222 208.121 390.343 222 373.222 222Z" fill="#F2F2F2"/>
<path d="M468.804 84.1377H255.222V95.823H441.538C452.493 95.823 463.34 97.9806 473.461 102.173C483.582 106.365 492.778 112.509 500.524 120.256C508.27 128.002 514.415 137.198 518.607 147.319C522.799 157.439 524.957 168.287 524.957 179.241V312H548.327C549.36 312 550.351 311.59 551.082 310.859C551.812 310.129 552.222 309.138 552.223 308.105V167.556C552.223 156.601 550.065 145.754 545.873 135.633C541.68 125.512 535.536 116.316 527.79 108.57C520.044 100.824 510.848 94.6796 500.727 90.4875C490.606 86.2953 479.759 84.1377 468.804 84.1377Z" fill="#F2F2F2"/>
<path d="M427.723 489V311.5H375.722V489C375.724 490.193 376.198 491.337 377.042 492.18C377.886 493.024 379.029 493.499 380.223 493.5H423.223C424.416 493.499 425.559 493.024 426.403 492.18C427.247 491.337 427.721 490.193 427.723 489Z" fill="#3F3D56"/>
<path d="M563.223 308V163.666C563.197 140.688 554.057 118.66 537.81 102.412C521.563 86.1652 499.534 77.026 476.557 77H256.222V313H558.223C559.548 312.998 560.819 312.471 561.756 311.534C562.694 310.597 563.221 309.326 563.223 308ZM258.222 79H476.557C499.004 79.0254 520.524 87.9537 536.397 103.826C552.269 119.698 561.197 141.219 561.223 163.666V308C561.222 308.795 560.905 309.558 560.343 310.12C559.78 310.683 559.018 310.999 558.223 311H258.222V79Z" fill="#3F3D56"/>
<path d="M373.222 207C377.995 206.995 382.57 205.096 385.944 201.722C389.319 198.347 391.217 193.772 391.222 189V60C391.223 59.2046 391.54 58.4421 392.102 57.8796C392.665 57.3172 393.427 57.0009 394.222 57H464.222C465.548 56.9985 466.819 56.4712 467.756 55.5338C468.694 54.5965 469.221 53.3256 469.222 52V5C469.221 3.67439 468.694 2.40351 467.756 1.46616C466.819 0.528807 465.548 0.00153504 464.222 0H360.222C358.897 0.00151655 357.626 0.528787 356.689 1.46614C355.751 2.40349 355.224 3.67438 355.222 5V189C355.228 193.772 357.126 198.347 360.5 201.722C363.875 205.096 368.45 206.995 373.222 207Z" fill="#6C63FF"/>
<path d="M248.222 75C233.137 74.9684 218.656 80.9308 207.967 91.5757C197.277 102.22 191.254 116.676 191.222 131.761V296.071H79.2225C74.7232 296.062 70.4046 297.84 67.2165 301.015C64.0284 304.19 62.232 308.501 62.2225 313H305.222V131.761C305.191 116.676 299.168 102.22 288.478 91.5757C277.789 80.9308 263.308 74.9684 248.222 75Z" fill="#3F3D56"/>
<path d="M261.901 168.568L250.098 217.324L19.2165 161.432L31.0193 112.676C31.1619 112.08 31.4528 111.529 31.865 111.076C32.2771 110.622 32.7972 110.28 33.377 110.081C33.805 109.93 34.2577 109.862 34.711 109.88L168.17 40.7782C168.952 40.3788 169.851 40.2722 170.705 40.4774C171.559 40.6826 172.311 41.1863 172.827 41.8974L237.146 131.591L261.394 165.414C261.438 165.473 261.469 165.541 261.484 165.613C261.5 165.686 261.499 165.76 261.483 165.832C261.977 166.654 262.127 167.636 261.901 168.568Z" fill="white"/>
<path d="M261.483 165.832C261.472 165.896 261.448 165.956 261.413 166.01C261.378 166.065 261.333 166.111 261.28 166.148C261.218 166.191 261.147 166.221 261.072 166.235C260.998 166.25 260.921 166.25 260.847 166.234C260.726 166.201 260.62 166.128 260.548 166.026L260.465 165.911L259.202 164.145L236.273 132.181L171.972 42.508C171.606 41.9998 171.069 41.64 170.459 41.4939C169.85 41.3478 169.208 41.4251 168.651 41.7117L36.2251 110.278L35.0368 110.895C34.9888 110.915 34.9396 110.933 34.8895 110.947C34.7999 110.931 34.709 110.922 34.618 110.921C34.4937 110.879 34.39 110.792 34.3282 110.676C34.2959 110.615 34.276 110.549 34.2696 110.48C34.2631 110.411 34.2702 110.342 34.2906 110.276C34.3109 110.211 34.3441 110.149 34.388 110.096C34.432 110.043 34.486 109.999 34.547 109.967L34.711 109.88L168.17 40.7782C168.952 40.3788 169.851 40.2722 170.705 40.4774C171.559 40.6826 172.311 41.1863 172.827 41.8974L237.146 131.591L261.394 165.414C261.438 165.473 261.469 165.541 261.484 165.613C261.5 165.686 261.499 165.76 261.483 165.832Z" fill="#3F3D56"/>
<path d="M192.142 170.804L187.003 171.374L148.861 175.599L123.575 178.399L122.081 178.565L90.5289 153.92L89.3201 152.976L81.8678 147.156L55.3542 126.449L55.1951 124.995L45.7646 39.8809C45.6361 38.7089 45.9775 37.5337 46.7141 36.613C47.4506 35.6924 48.5221 35.1013 49.6938 34.9694L175.55 21.0276C176.722 20.8996 177.896 21.2413 178.817 21.9777C179.738 22.7142 180.329 23.7854 180.461 24.9568L187.112 84.9944L190.801 118.28L194.101 148.059L195.63 161.888L196.077 165.894C196.204 167.066 195.861 168.241 195.124 169.162C194.387 170.082 193.314 170.672 192.142 170.804Z" fill="#E6E6E6"/>
<path d="M157.557 96.1978L103.041 102.236L83.7071 104.377C82.8535 104.471 81.9897 104.397 81.1649 104.157C80.3401 103.918 79.5705 103.518 78.9001 102.982C78.2297 102.445 77.6715 101.782 77.2575 101.029C76.8435 100.277 76.5818 99.4501 76.4873 98.5965C76.3927 97.7429 76.4672 96.8791 76.7066 96.0543C76.9459 95.2295 77.3452 94.4599 77.882 93.7895C78.4187 93.119 79.0822 92.5609 79.8347 92.1469C80.5871 91.7329 81.4137 91.4712 82.2673 91.3766L106.314 88.7134L156.114 83.1915C157.838 83.001 159.567 83.5031 160.921 84.5872C162.276 85.6714 163.144 87.249 163.335 88.9732C163.527 90.6973 163.025 92.4269 161.942 93.7817C160.858 95.1364 159.281 96.0055 157.557 96.1978Z" fill="white"/>
<path d="M160.661 120.314C160.521 120.339 160.38 120.364 160.237 120.378L96.9516 127.389L86.3853 128.562C84.6608 128.752 82.931 128.25 81.5767 127.166C80.2223 126.081 79.3543 124.503 79.1635 122.778C78.9728 121.054 79.4749 119.324 80.5595 117.97C81.644 116.615 83.2222 115.747 84.9468 115.557L100.225 113.866L150.356 108.312L158.792 107.377C160.479 107.188 162.173 107.664 163.516 108.702C164.859 109.74 165.746 111.26 165.989 112.94C166.231 114.62 165.811 116.329 164.817 117.705C163.823 119.081 162.333 120.017 160.661 120.314Z" fill="white"/>
<path d="M167.824 141.698C167.305 142.559 166.595 143.288 165.749 143.831C164.902 144.373 163.942 144.712 162.943 144.823L137.005 147.696L90.8075 152.814L90.7974 152.811L89.3201 152.976L81.8678 147.156C81.8217 146.714 81.8214 146.268 81.8667 145.826C82.0238 144.341 82.6831 142.955 83.7353 141.896C84.7876 140.837 86.1699 140.168 87.6535 140.002L94.0708 139.289L119.528 136.472L137.845 134.44L161.505 131.818C162.717 131.684 163.943 131.891 165.044 132.417C166.145 132.943 167.077 133.767 167.734 134.795C168.391 135.822 168.748 137.013 168.764 138.233C168.78 139.453 168.454 140.653 167.824 141.698Z" fill="white"/>
<path d="M131.391 66.7196L117.826 68.2219L111.835 68.8872L102.785 69.8888C101.06 70.0796 99.3308 69.5775 97.9764 68.4929C96.6221 67.4083 95.754 65.8302 95.5633 64.1056C95.3725 62.381 95.8747 60.6513 96.9592 59.297C98.0438 57.9426 99.6219 57.0746 101.346 56.8838L129.946 53.7184C131.67 53.5268 133.399 54.0279 134.754 55.1115C136.109 56.1951 136.977 57.7724 137.169 59.4964C137.36 61.2205 136.859 62.9501 135.776 64.3047C134.692 65.6593 133.115 66.5279 131.391 66.7196Z" fill="white"/>
<path d="M242.306 102.932L225.769 171.246L198.167 176.494L172.635 181.355L145.242 186.567L136.489 188.233C135.976 188.33 135.449 188.316 134.942 188.194C134.436 188.071 133.961 187.842 133.549 187.521L126.527 182.037L122.081 178.565L90.5289 153.92L110.591 71.0463C110.789 70.2218 111.221 69.4721 111.835 68.8872C112.374 68.3697 113.034 67.9961 113.755 67.8009C114.476 67.6056 115.234 67.595 115.96 67.77L239.03 97.5627C240.176 97.8409 241.164 98.5626 241.779 99.5693C242.393 100.576 242.583 101.785 242.306 102.932Z" fill="#6C63FF"/>
<path d="M204.386 157.278C203.976 158.963 202.915 160.417 201.434 161.32C199.954 162.223 198.176 162.502 196.49 162.096L124.275 144.614C122.591 144.204 121.138 143.142 120.234 141.662C119.331 140.182 119.052 138.404 119.457 136.718C119.476 136.635 119.499 136.553 119.528 136.472C119.989 134.846 121.061 133.463 122.52 132.611C123.979 131.758 125.711 131.504 127.353 131.9L199.568 149.382C201.253 149.792 202.707 150.853 203.61 152.333C204.513 153.814 204.792 155.592 204.386 157.278Z" fill="white"/>
<path d="M198.167 176.494L172.635 181.355L118.551 168.262C116.865 167.854 115.41 166.793 114.507 165.312C113.603 163.831 113.325 162.052 113.733 160.366C114.141 158.68 115.202 157.225 116.683 156.322C118.164 155.418 119.943 155.14 121.629 155.548L193.843 173.03C195.352 173.392 196.681 174.283 197.59 175.541C197.809 175.842 198.002 176.161 198.167 176.494Z" fill="white"/>
<path d="M145.242 186.567L136.489 188.233C135.976 188.33 135.449 188.316 134.942 188.194C134.436 188.071 133.961 187.842 133.549 187.521L126.527 182.037L145.242 186.567Z" fill="white"/>
<path d="M189.835 120.647C189.425 122.332 188.364 123.786 186.884 124.689C185.403 125.592 183.625 125.871 181.939 125.465L153.969 118.694C152.284 118.283 150.831 117.222 149.928 115.742C149.024 114.261 148.745 112.484 149.151 110.798C149.368 109.892 149.779 109.044 150.356 108.312C151.129 107.322 152.172 106.576 153.358 106.162C154.545 105.749 155.825 105.685 157.046 105.98L185.017 112.751C186.703 113.159 188.157 114.22 189.061 115.701C189.964 117.182 190.243 118.961 189.835 120.647Z" fill="white"/>
<path d="M172.637 181.354L145.239 186.568L136.489 188.234C135.977 188.33 135.45 188.316 134.944 188.193C134.437 188.071 133.963 187.842 133.551 187.523L126.524 182.037L128.99 182.634L134.195 186.695C134.489 186.923 134.829 187.087 135.19 187.174C135.552 187.262 135.928 187.272 136.294 187.203L142.773 185.971L170.171 180.757L172.637 181.354ZM90.7997 152.815L90.533 153.917L89.3178 152.972L90.7997 152.815ZM172.637 181.354L145.239 186.568L136.489 188.234C135.977 188.33 135.45 188.316 134.944 188.193C134.437 188.071 133.963 187.842 133.551 187.523L126.524 182.037L128.99 182.634L134.195 186.695C134.489 186.923 134.829 187.087 135.19 187.174C135.552 187.262 135.928 187.272 136.294 187.203L142.773 185.971L170.171 180.757L172.637 181.354ZM172.637 181.354L145.239 186.568L136.489 188.234C135.977 188.33 135.45 188.316 134.944 188.193C134.437 188.071 133.963 187.842 133.551 187.523L126.524 182.037L128.99 182.634L134.195 186.695C134.489 186.923 134.829 187.087 135.19 187.174C135.552 187.262 135.928 187.272 136.294 187.203L142.773 185.971L170.171 180.757L172.637 181.354ZM261.901 168.567L230.985 296.278C230.755 297.221 230.161 298.036 229.332 298.541C228.503 299.047 227.507 299.204 226.562 298.976L2.80167 244.808C1.8579 244.579 1.04371 243.984 0.537811 243.155C0.0319103 242.326 -0.124375 241.33 0.103302 240.386L31.0193 112.676C31.1619 112.08 31.4528 111.529 31.865 111.076C32.2771 110.622 32.7972 110.28 33.377 110.081C33.805 109.93 34.2577 109.862 34.711 109.88C35.2396 109.895 35.7575 110.032 36.2251 110.278C36.4411 110.381 36.6448 110.507 36.8324 110.655L55.1965 124.995L81.8667 145.829L90.8016 152.808L90.7997 152.815L90.8074 152.817L123.573 178.395L128.99 182.634L134.195 186.695C134.489 186.923 134.829 187.087 135.19 187.174C135.552 187.262 135.928 187.272 136.294 187.203L142.773 185.971L170.171 180.757L197.594 175.542L257.655 164.112C258.167 164.01 258.695 164.022 259.202 164.145C259.885 164.312 260.506 164.672 260.99 165.181C261.176 165.381 261.341 165.599 261.483 165.832C261.977 166.654 262.127 167.636 261.901 168.567ZM172.637 181.354L145.239 186.568L136.489 188.234C135.977 188.33 135.45 188.316 134.944 188.193C134.437 188.071 133.963 187.842 133.551 187.523L126.524 182.037L128.99 182.634L134.195 186.695C134.489 186.923 134.829 187.087 135.19 187.174C135.552 187.262 135.928 187.272 136.294 187.203L142.773 185.971L170.171 180.757L172.637 181.354ZM172.637 181.354L145.239 186.568L136.489 188.234C135.977 188.33 135.45 188.316 134.944 188.193C134.437 188.071 133.963 187.842 133.551 187.523L126.524 182.037L128.99 182.634L134.195 186.695C134.489 186.923 134.829 187.087 135.19 187.174C135.552 187.262 135.928 187.272 136.294 187.203L142.773 185.971L170.171 180.757L172.637 181.354ZM172.637 181.354L145.239 186.568L136.489 188.234C135.977 188.33 135.45 188.316 134.944 188.193C134.437 188.071 133.963 187.842 133.551 187.523L126.524 182.037L128.99 182.634L134.195 186.695C134.489 186.923 134.829 187.087 135.19 187.174C135.552 187.262 135.928 187.272 136.294 187.203L142.773 185.971L170.171 180.757L172.637 181.354Z" fill="white"/>
<path d="M172.637 181.354L145.239 186.568L136.489 188.234C135.977 188.33 135.45 188.316 134.944 188.193C134.437 188.071 133.963 187.842 133.551 187.523L126.524 182.037L128.99 182.634L134.195 186.695C134.489 186.923 134.829 187.087 135.19 187.174C135.552 187.262 135.928 187.272 136.294 187.203L142.773 185.971L170.171 180.757L172.637 181.354ZM90.7997 152.815L90.533 153.917L89.3178 152.972L90.7997 152.815ZM172.637 181.354L145.239 186.568L136.489 188.234C135.977 188.33 135.45 188.316 134.944 188.193C134.437 188.071 133.963 187.842 133.551 187.523L126.524 182.037L128.99 182.634L134.195 186.695C134.489 186.923 134.829 187.087 135.19 187.174C135.552 187.262 135.928 187.272 136.294 187.203L142.773 185.971L170.171 180.757L172.637 181.354ZM172.637 181.354L145.239 186.568L136.489 188.234C135.977 188.33 135.45 188.316 134.944 188.193C134.437 188.071 133.963 187.842 133.551 187.523L126.524 182.037L128.99 182.634L134.195 186.695C134.489 186.923 134.829 187.087 135.19 187.174C135.552 187.262 135.928 187.272 136.294 187.203L142.773 185.971L170.171 180.757L172.637 181.354ZM260.465 165.911L260.329 166.013C260.306 165.976 260.266 165.942 260.236 165.903C259.933 165.588 259.557 165.353 259.141 165.219C258.724 165.085 258.281 165.056 257.851 165.136L198.166 176.49L172.637 181.354L145.239 186.568L136.489 188.234C135.977 188.33 135.45 188.316 134.944 188.193C134.437 188.071 133.963 187.842 133.551 187.523L126.524 182.037L128.99 182.634L134.195 186.695C134.489 186.923 134.829 187.087 135.19 187.174C135.552 187.262 135.928 187.272 136.294 187.203L142.773 185.971L170.171 180.757L197.594 175.542L257.655 164.112C258.167 164.01 258.695 164.022 259.202 164.145L260.465 165.911ZM261.901 168.567L230.985 296.278C230.755 297.221 230.161 298.036 229.332 298.541C228.503 299.047 227.507 299.204 226.562 298.976L2.80167 244.808C1.8579 244.579 1.04371 243.984 0.537811 243.155C0.0319103 242.326 -0.124375 241.33 0.103302 240.386L31.0193 112.676C31.1619 112.08 31.4528 111.529 31.865 111.076C32.2771 110.622 32.7972 110.28 33.377 110.081C33.805 109.93 34.2577 109.862 34.711 109.88C35.2396 109.895 35.7575 110.032 36.2251 110.278C36.4411 110.381 36.6448 110.507 36.8324 110.655L55.1965 124.995L81.8667 145.829L90.8016 152.808L90.7997 152.815L90.8074 152.817L123.573 178.395L128.99 182.634L134.195 186.695C134.489 186.923 134.829 187.087 135.19 187.174C135.552 187.262 135.928 187.272 136.294 187.203L142.773 185.971L170.171 180.757L197.594 175.542L257.655 164.112C258.167 164.01 258.695 164.022 259.202 164.145C259.885 164.312 260.506 164.672 260.99 165.181C261.176 165.381 261.341 165.599 261.483 165.832C261.977 166.654 262.127 167.636 261.901 168.567ZM260.881 168.321C260.972 167.944 260.978 167.552 260.898 167.173C260.818 166.794 260.655 166.438 260.419 166.13C260.398 166.085 260.367 166.045 260.329 166.013C260.306 165.976 260.266 165.942 260.236 165.903C259.933 165.588 259.557 165.353 259.141 165.219C258.724 165.085 258.281 165.056 257.851 165.136L198.166 176.49L172.637 181.354L145.239 186.568L136.489 188.234C135.977 188.33 135.45 188.316 134.944 188.193C134.437 188.071 133.963 187.842 133.551 187.523L126.524 182.037L122.08 178.565L90.533 153.917L89.3178 152.972L81.8712 147.155L55.353 126.445L36.1818 111.474C35.8903 111.247 35.5538 111.084 35.1946 110.997C35.0943 110.972 34.9923 110.956 34.8895 110.947C34.7999 110.93 34.7091 110.922 34.618 110.921C34.3116 110.918 34.0069 110.968 33.7173 111.068C33.3041 111.212 32.9334 111.457 32.639 111.78C32.3445 112.104 32.1356 112.496 32.0313 112.921L1.11526 240.631C1.03392 240.966 1.01934 241.313 1.07242 241.653C1.12549 241.994 1.24514 242.32 1.42453 242.614C1.60392 242.908 1.83955 243.164 2.11789 243.367C2.39622 243.57 2.71185 243.716 3.04666 243.796L226.807 297.964C227.483 298.126 228.194 298.014 228.787 297.651C229.379 297.289 229.803 296.706 229.965 296.031L260.881 168.321ZM172.637 181.354L145.239 186.568L136.489 188.234C135.977 188.33 135.45 188.316 134.944 188.193C134.437 188.071 133.963 187.842 133.551 187.523L126.524 182.037L128.99 182.634L134.195 186.695C134.489 186.923 134.829 187.087 135.19 187.174C135.552 187.262 135.928 187.272 136.294 187.203L142.773 185.971L170.171 180.757L172.637 181.354ZM172.637 181.354L145.239 186.568L136.489 188.234C135.977 188.33 135.45 188.316 134.944 188.193C134.437 188.071 133.963 187.842 133.551 187.523L126.524 182.037L128.99 182.634L134.195 186.695C134.489 186.923 134.829 187.087 135.19 187.174C135.552 187.262 135.928 187.272 136.294 187.203L142.773 185.971L170.171 180.757L172.637 181.354ZM172.637 181.354L145.239 186.568L136.489 188.234C135.977 188.33 135.45 188.316 134.944 188.193C134.437 188.071 133.963 187.842 133.551 187.523L126.524 182.037L128.99 182.634L134.195 186.695C134.489 186.923 134.829 187.087 135.19 187.174C135.552 187.262 135.928 187.272 136.294 187.203L142.773 185.971L170.171 180.757L172.637 181.354Z" fill="#3F3D56"/>
<path d="M61.1205 219.717C61.6246 217.625 61.278 215.418 60.1568 213.58C59.0355 211.743 57.2313 210.425 55.1397 209.916L26.8982 203.079C24.8084 202.581 22.6063 202.932 20.7744 204.054C18.9425 205.176 17.63 206.979 17.1245 209.067C16.6191 211.155 16.9618 213.358 18.0776 215.194C19.1934 217.03 20.9914 218.349 23.0777 218.861L51.3192 225.698C53.4119 226.202 55.6191 225.856 57.4565 224.734C59.294 223.613 60.6117 221.809 61.1205 219.717Z" fill="#6C63FF"/>
<path d="M373.222 196C369.356 196 366.222 192.866 366.222 189C366.222 185.134 369.356 182 373.222 182C377.088 182 380.222 185.134 380.222 189C380.222 192.866 377.088 196 373.222 196Z" fill="white"/>
</g>
<defs>
<clipPath id="clip0_1_2">
<rect width="576.499" height="493.5" fill="white" transform="matrix(-1 0 0 1 576.499 0)"/>
</clipPath>
</defs>
</svg>
